# xmcd
#
# Track frame offsets:
#  150
#  12460
#  29132
#  43793
#  53380
#  68612
#  83155
#  100063
#  119456
#  138036
#  148737
#  163963
#  179402
#
# Disc length: 2673 seconds
#
# Revision: 1
# Processed by: cddbd v1.5.1PL0 Copyright (c) Steve Scherf et al.
# Submitted via: Collectorz.com_Music_Collector 6.9
#
DISCID=b20a6f0d
DTITLE=Ann Rabson - In a Family Way
DYEAR=2005
DGENRE=Blues -  Blues Female Vocalist
TTITLE0=Little Red Wagon
TTITLE1=See See Rider
TTITLE2=I Can't Get My Mind Off of You
TTITLE3=Little Chickee Wah Wah
TTITLE4=Do Your Duty
TTITLE5=Blindsided
TTITLE6=Hopin' It'll Be All Right
TTITLE7=I'd Rather Be Alone
TTITLE8=Midnight Hour Blues
TTITLE9=I Want to Hop on Your Harley
TTITLE10=Go Where the Bad People Go
TTITLE11=Three Hundred Pounds of Joy
TTITLE12=A Better World
EXTD=
EXTT0=
EXTT1=
EXTT2=
EXTT3=
EXTT4=
EXTT5=
EXTT6=
EXTT7=
EXTT8=
EXTT9=
EXTT10=
EXTT11=
EXTT12=
PLAYORDER=
